HIERARCHY
ROOT Hips
{
	OFFSET -0.001795 -0.223333 0.028219
	CHANNELS 6 Xposition Yposition Zposition Zrotation Yrotation Xrotation 
	JOINT LeftUpLeg
	{
		OFFSET 0.069520 -0.091406 -0.006815
		CHANNELS 3 Zrotation Yrotation Xrotation
		JOINT LeftLeg
		{
			OFFSET 0.034277 -0.375199 -0.004496
			CHANNELS 3 Zrotation Yrotation Xrotation
			JOINT LeftFoot
			{
				OFFSET -0.013596 -0.397961 -0.043693
				CHANNELS 3 Zrotation Yrotation Xrotation
				JOINT LeftToe
				{
					OFFSET 0.026358 -0.055791 0.119288
					CHANNELS 3 Zrotation Yrotation Xrotation
					End Site
					{
						OFFSET 0.000000 0.000000 0.000000
					}
				}
			}
		}
	}
	JOINT RightUpLeg
	{
		OFFSET -0.067670 -0.090522 -0.004320
		CHANNELS 3 Zrotation Yrotation Xrotation
		JOINT RightLeg
		{
			OFFSET -0.038290 -0.382569 -0.008850
			CHANNELS 3 Zrotation Yrotation Xrotation
			JOINT RightFoot
			{
				OFFSET 0.015774 -0.398415 -0.042312
				CHANNELS 3 Zrotation Yrotation Xrotation
				JOINT RightToe
				{
					OFFSET -0.025372 -0.048144 0.123348
					CHANNELS 3 Zrotation Yrotation Xrotation
					End Site
					{
						OFFSET 0.000000 0.000000 0.000000
					}
				}
			}
		}
	}
	JOINT Spine
	{
		OFFSET -0.002533 0.108963 -0.026696
		CHANNELS 3 Zrotation Yrotation Xrotation
		JOINT Spine1
		{
			OFFSET 0.005487 0.135180 0.001092
			CHANNELS 3 Zrotation Yrotation Xrotation
			JOINT Spine2
			{
				OFFSET 0.001457 0.052922 0.025425
				CHANNELS 3 Zrotation Yrotation Xrotation
				JOINT Neck
				{
					OFFSET -0.002778 0.213870 -0.042857
					CHANNELS 3 Zrotation Yrotation Xrotation
					JOINT Head
					{
						OFFSET 0.005152 0.064970 0.051349
						CHANNELS 3 Zrotation Yrotation Xrotation
						End Site
						{
							OFFSET 0.000000 0.000000 0.000000
						}
					}
				}
				JOINT LeftShoulder
				{
					OFFSET 0.078845 0.121749 -0.034090
					CHANNELS 3 Zrotation Yrotation Xrotation
					JOINT LeftArm
					{
						OFFSET 0.090977 0.030469 -0.008868
						CHANNELS 3 Zrotation Yrotation Xrotation
						JOINT LeftForeArm
						{
							OFFSET 0.259612 -0.012772 -0.027456
							CHANNELS 3 Zrotation Yrotation Xrotation
							JOINT LeftHand
							{
								OFFSET 0.249234 0.008986 -0.001171
								CHANNELS 3 Zrotation Yrotation Xrotation
								End Site
								{
									OFFSET 0.000000 0.000000 0.000000
								}
							}
						}
					}
				}
				JOINT RightShoulder
				{
					OFFSET -0.081759 0.118833 -0.038615
					CHANNELS 3 Zrotation Yrotation Xrotation
					JOINT RightArm
					{
						OFFSET -0.096012 0.032551 -0.009143
						CHANNELS 3 Zrotation Yrotation Xrotation
						JOINT RightForeArm
						{
							OFFSET -0.253742 -0.013329 -0.021401
							CHANNELS 3 Zrotation Yrotation Xrotation
							JOINT RightHand
							{
								OFFSET -0.255298 0.007772 -0.005559
								CHANNELS 3 Zrotation Yrotation Xrotation
								End Site
								{
									OFFSET 0.000000 0.000000 0.000000
								}
							}
						}
					}
				}
			}
		}
	}
}
MOTION
Frames: 7
Frame Time: 0.050000
0.000000 0.921932 0.000000 1.614851 1.482794 2.177589 4.432141 -1.373906 -23.158950 -8.172856 1.270665 11.190230 6.348933 15.575161 17.730752 0.000000 0.000000 0.000000 0.464627 -0.269305 2.440218 0.256884 0.266894 8.223419 -3.652666 -9.104310 -0.504815 0.000000 0.000000 0.000000 4.199537 -0.918567 10.810166 -2.203104 1.050335 -0.354677 -3.092291 7.595860 6.961844 7.803317 -1.720773 -21.753866 0.000000 0.000000 0.000000 -22.198512 -11.398228 1.533763 -47.939502 -7.311340 -2.205342 -5.223022 -32.866195 2.128027 0.000000 0.000000 0.000000 18.165298 5.672053 3.715566 53.585997 16.279766 1.393610 0.491855 31.683504 1.934694 0.000000 0.000000 0.000000 
0.008753 0.920994 0.022659 1.459677 2.123083 2.210655 2.282918 -1.670330 -21.572168 -5.447647 0.690287 11.150642 6.396605 15.392081 14.559115 0.000000 0.000000 0.000000 0.316775 -0.375927 3.502914 0.070642 0.320410 8.980141 -3.791390 -9.751107 0.606336 0.000000 0.000000 0.000000 3.930170 -0.899455 10.850954 -1.339100 0.700101 -3.335502 -3.492825 8.562635 9.202411 8.506344 -1.349641 -25.566453 0.000000 0.000000 0.000000 -22.282932 -10.597126 0.708810 -46.830018 -7.372831 -2.185855 -8.056205 -33.151825 2.897757 0.000000 0.000000 0.000000 17.877049 5.341745 3.915673 54.243839 16.703722 1.421063 -0.495639 30.796850 1.722284 0.000000 0.000000 0.000000 
0.019333 0.920515 0.049065 1.229568 1.059565 0.665064 1.695842 -1.589886 -19.897514 -5.208731 0.707287 14.581634 7.350062 16.433781 11.915208 0.000000 0.000000 0.000000 -1.167695 -0.451186 5.245811 1.292572 0.196084 12.479786 -2.936937 -7.754149 1.013193 0.000000 0.000000 0.000000 3.667246 -0.821244 10.635941 -2.538245 1.225410 -3.063280 -2.977263 9.846282 10.780070 9.309526 -1.899050 -24.619287 0.000000 0.000000 0.000000 -19.906964 -12.085303 1.687849 -47.828959 -9.220350 -1.789571 -5.996696 -30.601381 2.115156 0.000000 0.000000 0.000000 17.048570 4.971178 3.775132 54.194480 18.061122 1.943103 -1.068007 29.721157 1.544102 0.000000 0.000000 0.000000 
0.031050 0.921002 0.079120 0.963088 1.245274 -0.057429 0.375023 -1.502883 -16.645201 -3.991045 0.411460 14.019578 7.586857 16.534629 8.782503 0.000000 0.000000 0.000000 -1.653460 -0.333430 4.224795 1.491962 0.326147 20.105729 -2.407469 -7.085175 2.954449 0.000000 0.000000 0.000000 3.090449 -0.684736 9.630959 -2.040405 1.002153 -2.399204 -2.705533 10.348368 11.963332 9.694929 -2.144528 -24.129605 0.000000 0.000000 0.000000 -19.571895 -13.260764 2.190833 -47.532461 -10.069985 -1.484004 -4.669751 -32.126471 1.787906 0.000000 0.000000 0.000000 15.968608 4.836706 3.722715 54.440663 17.898513 1.877440 -0.631707 31.246599 1.838073 0.000000 0.000000 0.000000 
0.042219 0.925194 0.111166 0.946206 0.932637 -1.146404 -0.391686 -1.156569 -12.107146 -4.007481 0.429570 12.109840 7.723959 16.588708 7.216329 0.000000 0.000000 0.000000 -3.639819 0.019729 0.669887 2.906059 0.065990 32.371181 0.160570 -3.615392 9.166734 0.000000 0.000000 0.000000 2.103884 -0.558132 9.238884 -1.464051 0.730533 -1.662454 -2.717080 10.616180 11.859489 9.857362 -2.307546 -23.659744 0.000000 0.000000 0.000000 -18.426953 -14.230615 2.747361 -48.043999 -11.027305 -1.141327 -3.390560 -32.882777 1.397616 0.000000 0.000000 0.000000 14.871888 4.778386 3.539329 54.979604 17.704262 1.991900 -1.374684 32.468425 1.753902 0.000000 0.000000 0.000000 
0.050857 0.927726 0.142875 0.940776 1.006419 -1.897922 -0.548998 -0.762549 -7.930835 -4.759350 0.579647 10.029308 7.613355 16.255792 5.738751 0.000000 0.000000 0.000000 -4.699142 0.366179 -4.965813 3.820825 -0.307389 45.892343 1.423265 -3.675183 16.119712 0.000000 0.000000 0.000000 1.973182 -0.549731 9.369294 -1.666002 0.835324 -2.344424 -2.397597 9.187380 12.978878 10.442829 -2.834436 -23.842535 0.000000 0.000000 0.000000 -17.664947 -15.097715 3.723682 -47.929366 -12.164765 -0.978649 -2.605402 -34.913901 1.391920 0.000000 0.000000 0.000000 14.090076 5.094495 3.335295 55.514162 17.935659 2.140127 -0.939323 34.216877 1.944450 0.000000 0.000000 0.000000 
0.056764 0.930101 0.173385 0.170086 1.115695 -2.622560 -0.378631 -0.358398 -3.816811 -4.195876 0.464882 7.850241 7.465544 15.860310 4.486876 0.000000 0.000000 0.000000 -5.271510 0.585029 -9.607906 5.494619 -1.442741 53.935164 0.735459 -6.600274 22.068148 0.000000 0.000000 0.000000 2.274176 -0.586026 9.600904 -1.169911 0.605500 -2.018856 -3.002671 8.026786 12.864982 10.579318 -3.077351 -23.713523 0.000000 0.000000 0.000000 -16.848569 -15.135123 4.064415 -47.378985 -13.983881 -0.389721 -1.665477 -36.060060 1.219795 0.000000 0.000000 0.000000 14.674979 4.974204 3.121927 55.699147 18.722366 2.524340 -1.750189 36.257595 1.799195 0.000000 0.000000 0.000000 
